HIERARCHY
ROOT Hips
{
	OFFSET 0.00000 0.00000 0.00000
	CHANNELS 6 Xposition Yposition Zposition Zrotation Yrotation Xrotation 
	JOINT LHipJoint
	{
		OFFSET 0 0 0
		CHANNELS 3 Zrotation Yrotation Xrotation
		JOINT LeftUpLeg
		{
			OFFSET 1.28858 -1.83292 1.03970
			CHANNELS 3 Zrotation Yrotation Xrotation
			JOINT LeftLeg
			{
				OFFSET 2.47846 -6.80952 0.00000
				CHANNELS 3 Zrotation Yrotation Xrotation
				JOINT LeftFoot
				{
					OFFSET 2.75274 -7.56311 0.00000
					CHANNELS 3 Zrotation Yrotation Xrotation
					JOINT LeftToeBase
					{
						OFFSET 0.12848 -0.35301 1.68223
						CHANNELS 3 Zrotation Yrotation Xrotation
						End Site
						{
							OFFSET 0.00000 -0.00000 0.87311
						}
					}
				}
			}
		}
	}
	JOINT RHipJoint
	{
		OFFSET 0 0 0
		CHANNELS 3 Zrotation Yrotation Xrotation
		JOINT RightUpLeg
		{
			OFFSET -1.31183 -1.83292 1.03970
			CHANNELS 3 Zrotation Yrotation Xrotation
			JOINT RightLeg
			{
				OFFSET -2.44740 -6.72417 0.00000
				CHANNELS 3 Zrotation Yrotation Xrotation
				JOINT RightFoot
				{
					OFFSET -2.67343 -7.34519 0.00000
					CHANNELS 3 Zrotation Yrotation Xrotation
					JOINT RightToeBase
					{
						OFFSET -0.16914 -0.46471 1.77626
						CHANNELS 3 Zrotation Yrotation Xrotation
						End Site
						{
							OFFSET -0.00000 -0.00000 0.92777
						}
					}
				}
			}
		}
	}
	JOINT LowerBack
	{
		OFFSET 0 0 0
		CHANNELS 3 Zrotation Yrotation Xrotation
		JOINT Spine
		{
			OFFSET 0.01249 2.14252 0.03842
			CHANNELS 3 Zrotation Yrotation Xrotation
			JOINT Spine1
			{
				OFFSET -0.02957 2.14199 -0.03751
				CHANNELS 3 Zrotation Yrotation Xrotation
				JOINT Neck
				{
					OFFSET 0 0 0
					CHANNELS 3 Zrotation Yrotation Xrotation
					JOINT Neck1
					{
						OFFSET -0.01678 1.65709 -0.05476
						CHANNELS 3 Zrotation Yrotation Xrotation
						JOINT Head
						{
							OFFSET 0.07912 1.58331 -0.11843
							CHANNELS 3 Zrotation Yrotation Xrotation
							End Site
							{
								OFFSET 0.03298 1.73940 -0.04271
							}
						}
					}
				}
				JOINT LeftShoulder
				{
					OFFSET 0 0 0
					CHANNELS 3 Zrotation Yrotation Xrotation
					JOINT LeftArm
					{
						OFFSET 3.39556 1.16496 0.08673
						CHANNELS 3 Zrotation Yrotation Xrotation
						JOINT LeftForeArm
						{
							OFFSET 5.23910 -0.00000 -0.00000
							CHANNELS 3 Zrotation Yrotation Xrotation
							JOINT LeftHand
							{
								OFFSET 3.31467 -0.00000 0.00000
								CHANNELS 3 Zrotation Yrotation Xrotation
								JOINT LeftFingerBase
								{
									OFFSET 0 0 0
									CHANNELS 3 Zrotation Yrotation Xrotation
									JOINT LeftHandIndex1
									{
										OFFSET 0.96590 -0.00000 0.00000
										CHANNELS 3 Zrotation Yrotation Xrotation
										End Site
										{
											OFFSET 0.77873 -0.00000 0.00000
										}
									}
								}
								JOINT LThumb
								{
									OFFSET 0 0 0
									CHANNELS 3 Zrotation Yrotation Xrotation
									End Site
									{
										OFFSET 0.79062 -0.00000 0.79062
									}
								}
							}
						}
					}
				}
				JOINT RightShoulder
				{
					OFFSET 0 0 0
					CHANNELS 3 Zrotation Yrotation Xrotation
					JOINT RightArm
					{
						OFFSET -3.27193 1.31331 0.33940
						CHANNELS 3 Zrotation Yrotation Xrotation
						JOINT RightForeArm
						{
							OFFSET -5.30252 -0.00000 0.00000
							CHANNELS 3 Zrotation Yrotation Xrotation
							JOINT RightHand
							{
								OFFSET -3.67875 -0.00000 0.00000
								CHANNELS 3 Zrotation Yrotation Xrotation
								JOINT RightFingerBase
								{
									OFFSET 0 0 0
									CHANNELS 3 Zrotation Yrotation Xrotation
									JOINT RightHandIndex1
									{
										OFFSET -0.59481 -0.00000 0.00000
										CHANNELS 3 Zrotation Yrotation Xrotation
										End Site
										{
											OFFSET -0.47955 -0.00000 0.00000
										}
									}
								}
								JOINT RThumb
								{
									OFFSET 0 0 0
									CHANNELS 3 Zrotation Yrotation Xrotation
									End Site
									{
										OFFSET -0.48687 -0.00000 0.48687
									}
								}
							}
						}
					}
				}
			}
		}
	}
}
MOTION
Frames: 7
Frame Time: 0.013986
0.00 0.00 0.00 -11.8567 20.7552 -22.5592 0.0000 0.0000 0.0000 -12.2234 -11.4071 -54.3127 2.2703 9.4078 27.0795 39.5190 15.8662 164.3606 3.0143 10.7181 31.3351 0.0000 0.0000 0.0000 -13.0010 11.0977 -70.4989 -0.1786 -2.7219 7.5054 -0.8499 -13.8805 -27.3889 -0.2634 -3.3018 9.1203 1.8569 -1.1745 25.6942 1.5157 -0.7972 8.4770 0.8125 -0.3311 -4.8686 -1.3700 -5.1467 -12.9076 7.8212 -6.8412 -1.6643 2.3798 -3.1670 2.0657 0.0000 -0.0000 0.0000 34.7989 -36.4552 -76.1361 9.9514 -16.6636 -1.4610 -0.0000 0.0000 -26.9812 36.0983 -8.9786 -6.4922 -7.1250 0.0000 -0.0000 6.5025 18.9545 -4.0640 0.0000 -0.0000 0.0000 8.1626 11.0694 -74.7280 -15.0802 24.2577 -3.2588 0.0000 -0.0000 -39.9814 -17.9116 -35.8004 10.7064 7.1250 -0.0000 -0.0000 20.6713 -66.0322 -10.6910
0.00 0.00 0.00 -11.8904 20.7933 -26.1921 0.0000 0.0000 0.0000 -7.9757 -20.8379 -61.1735 1.3601 7.3819 20.8517 40.2726 14.5527 173.2797 3.0198 10.7270 31.3645 0.0000 0.0000 0.0000 -12.3025 11.6137 -74.6733 -1.3990 -7.4824 21.1526 -0.9393 -13.1366 -27.3272 -0.5082 -4.5696 12.6849 0.1628 -0.8681 32.3636 1.5209 -0.6593 11.4977 1.8264 -0.2530 -4.5571 -0.5703 -5.2005 -9.7923 8.4546 -6.3718 -10.4269 2.6740 -3.2219 -1.3383 0.0000 0.0000 0.0000 30.1179 -31.1557 -104.7787 10.4183 -17.3912 -1.5977 -0.0000 0.0000 -30.3207 49.6796 -10.1369 -11.7161 -7.1250 0.0000 -0.0000 15.4001 14.8981 -11.3473 0.0000 0.0000 0.0000 10.6075 9.0639 -93.5259 -13.4723 21.9753 -2.6274 0.0000 -0.0000 -39.2874 -28.3540 -37.3813 18.1407 7.1250 -0.0000 -0.0000 9.1335 -70.7543 -5.6276
0.00 0.00 0.00 -11.1162 20.6966 -27.8346 0.0000 0.0000 0.0000 -6.2062 -24.6815 -61.8983 1.1822 6.9006 19.4212 40.6479 16.2246 177.3642 4.0889 12.2778 36.7220 0.0000 0.0000 0.0000 -7.1178 11.1126 -80.1995 -4.6762 -13.0096 39.4045 -0.1044 -6.4129 -11.4539 -1.3560 -7.3712 20.8200 -2.3953 -0.2272 34.5241 1.6814 -0.6381 12.1226 3.2292 -0.3221 -4.1330 -1.9899 -4.9013 -8.6328 10.2017 -5.7849 -10.3113 3.5743 -2.9247 -1.4255 0.0000 0.0000 0.0000 25.9498 -30.6648 -104.1496 9.3052 -15.6455 -1.2812 -0.0000 0.0000 -32.4434 49.2745 -12.1376 -13.7247 -7.1250 0.0000 -0.0000 14.6634 12.1683 -11.6401 0.0000 0.0000 0.0000 12.6421 12.1657 -95.0286 -12.9002 21.1408 -2.4172 0.0000 -0.0000 -34.0516 -21.4502 -37.6286 13.4896 7.1250 -0.0000 -0.0000 18.5912 -68.7756 -10.7363
0.00 0.00 0.00 -12.7029 20.5644 -28.6142 0.0000 0.0000 0.0000 -4.2340 -23.1832 -59.6640 1.2492 7.0863 19.9712 40.7680 19.1037 174.7727 3.7079 11.7612 34.8923 0.0000 0.0000 0.0000 -3.4996 10.9844 -83.6490 -8.9625 -16.7835 55.9603 0.1034 -6.2760 -5.1082 -1.6010 -7.9802 22.6539 -1.5742 -0.6628 33.7857 2.0710 -0.8937 12.0697 3.2821 -0.4433 -3.9222 -2.0755 -4.8983 -8.6303 10.5132 -5.8460 -9.2685 3.6675 -2.9301 -1.0664 0.0000 0.0000 0.0000 22.4809 -34.5328 -95.2741 8.3132 -14.0593 -1.0269 -0.0000 0.0000 -35.8617 45.3520 -10.7044 -10.6494 -7.1250 0.0000 -0.0000 12.4825 15.1612 -9.0029 0.0000 0.0000 0.0000 12.8977 17.2846 -95.2143 -12.7300 20.8903 -2.3561 0.0000 -0.0000 -35.1231 -22.4286 -36.5758 13.8179 7.1250 -0.0000 -0.0000 16.1177 -68.0941 -9.0312
0.00 0.00 0.00 -13.7696 22.0669 -28.4119 0.0000 0.0000 0.0000 -3.0543 -23.6560 -57.9273 1.7969 8.4296 24.0266 40.7463 19.2136 174.3198 3.5320 11.5102 34.0204 0.0000 0.0000 0.0000 -2.7459 9.4091 -84.7078 -14.6154 -19.2902 74.0755 0.2899 -12.8975 -14.0408 -1.0956 -6.6516 18.6872 0.3387 -1.9449 31.7974 2.0090 -1.9401 11.1384 2.7044 -0.8872 -4.6576 -1.4587 -5.2685 -9.4102 9.8439 -6.4077 -9.3213 3.2815 -3.2023 -0.9601 -0.0000 0.0000 0.0000 18.7946 -43.7916 -80.7289 9.5987 -16.1094 -1.3615 -0.0000 0.0000 -37.8799 42.0270 -9.2776 -8.2672 -7.1250 0.0000 -0.0000 10.5448 17.7006 -6.9588 -0.0000 0.0000 0.0000 9.2719 23.3203 -84.6833 -11.9998 19.8043 -2.1022 0.0000 -0.0000 -42.7626 -21.5422 -37.4321 13.4927 7.1250 -0.0000 -0.0000 18.2323 -68.6224 -10.4613
0.00 0.00 0.00 -13.7153 22.1324 -28.4596 0.0000 0.0000 0.0000 -2.8194 -23.1667 -57.7850 1.9981 8.8621 25.3649 40.6438 18.1677 174.3309 3.2004 11.0126 32.3223 0.0000 0.0000 0.0000 -2.4221 8.9620 -84.4228 -16.1788 -19.6463 78.7640 0.2909 -15.3942 -18.5218 -1.0068 -6.3848 17.9050 0.7985 -2.1160 31.2874 2.1276 -2.0297 10.7340 2.5942 -0.9245 -4.8971 -1.6965 -5.1353 -9.8443 9.9707 -6.2178 -9.0943 3.3573 -3.0810 -0.8119 -0.0000 0.0000 0.0000 18.4218 -46.0097 -73.1784 9.8638 -16.5262 -1.4360 -0.0000 0.0000 -36.7481 40.7234 -9.3136 -7.9313 -7.1250 0.0000 -0.0000 9.6512 17.8705 -6.3144 -0.0000 0.0000 0.0000 6.8656 25.5682 -80.1756 -12.1367 20.0093 -2.1488 0.0000 -0.0000 -41.6405 -21.9274 -36.5964 13.4953 7.1250 -0.0000 -0.0000 16.7641 -67.9603 -9.3505
0.00 0.00 0.00 -13.3465 22.0843 -28.3212 0.0000 0.0000 0.0000 -3.1166 -22.8729 -57.5912 2.0950 9.0612 25.9870 40.6202 17.5862 174.7767 3.4088 11.3292 33.3983 0.0000 0.0000 0.0000 -2.4620 8.7573 -84.4709 -17.1987 -19.8108 81.7847 0.8225 -28.9116 -36.3135 -0.8340 -5.8259 16.2802 0.8078 -2.1384 30.9323 2.0881 -2.0735 10.5073 2.5523 -0.9463 -4.9950 -1.5081 -5.0163 -10.2344 9.6475 -6.1222 -8.6309 3.1946 -3.0154 -0.6202 -0.0000 -0.0000 0.0000 18.4197 -46.6633 -67.8505 9.9111 -16.6005 -1.4495 -0.0000 0.0000 -36.8008 38.7528 -10.2039 -8.0929 -7.1250 0.0000 -0.0000 8.1630 17.0647 -5.4643 -0.0000 -0.0000 0.0000 5.6209 26.8084 -77.6182 -12.3393 20.3116 -2.2187 0.0000 -0.0000 -40.5975 -21.7599 -36.1246 13.2420 7.1250 -0.0000 -0.0000 16.4448 -67.4647 -8.9841
